solid OpenSCAD_Model
  facet normal 0 1 0
    outer loop
      vertex 7.5 7.5 11.25
      vertex 37.2644 7.5 0
      vertex -7.5 7.5 11.25
    endloop
  endfacet
  facet normal 0 1 0
    outer loop
      vertex 37.2644 7.5 0
      vertex 7.5 7.5 11.25
      vertex 7.5 7.5 20.8413
    endloop
  endfacet
  facet normal 0 1 -0
    outer loop
      vertex -7.5 7.5 11.25
      vertex -37.2644 7.5 0
      vertex -7.5 7.5 20.8413
    endloop
  endfacet
  facet normal 0 1 0
    outer loop
      vertex -37.2644 7.5 0
      vertex -7.5 7.5 11.25
      vertex 37.2644 7.5 0
    endloop
  endfacet
  facet normal 0 0 -1
    outer loop
      vertex -37.2644 -7.5 0
      vertex 37.2644 7.5 0
      vertex 37.2644 -7.5 0
    endloop
  endfacet
  facet normal -0 0 -1
    outer loop
      vertex 37.2644 7.5 0
      vertex -37.2644 -7.5 0
      vertex -37.2644 7.5 0
    endloop
  endfacet
  facet normal 0 -1 -0
    outer loop
      vertex -7.5 -7.5 11.25
      vertex -37.2644 -7.5 0
      vertex 7.5 -7.5 11.25
    endloop
  endfacet
  facet normal 0 -1 0
    outer loop
      vertex -37.2644 -7.5 0
      vertex -7.5 -7.5 11.25
      vertex -7.5 -7.5 20.8413
    endloop
  endfacet
  facet normal 0 -1 0
    outer loop
      vertex 7.5 -7.5 11.25
      vertex 37.2644 -7.5 0
      vertex 7.5 -7.5 20.8413
    endloop
  endfacet
  facet normal 0 -1 0
    outer loop
      vertex 37.2644 -7.5 0
      vertex 7.5 -7.5 11.25
      vertex -37.2644 -7.5 0
    endloop
  endfacet
  facet normal -0.573577 0 0.819151
    outer loop
      vertex -37.2644 7.5 0
      vertex -7.5 -7.5 20.8413
      vertex -7.5 7.5 20.8413
    endloop
  endfacet
  facet normal -0.573577 0 0.819151
    outer loop
      vertex -7.5 -7.5 20.8413
      vertex -37.2644 7.5 0
      vertex -37.2644 -7.5 0
    endloop
  endfacet
  facet normal 0.573577 0 0.819151
    outer loop
      vertex 7.5 7.5 20.8413
      vertex 37.2644 -7.5 0
      vertex 37.2644 7.5 0
    endloop
  endfacet
  facet normal 0.573577 0 0.819151
    outer loop
      vertex 37.2644 -7.5 0
      vertex 7.5 7.5 20.8413
      vertex 7.5 -7.5 20.8413
    endloop
  endfacet
  facet normal 1 -0 0
    outer loop
      vertex -7.5 -7.5 20.8413
      vertex -7.5 7.5 11.25
      vertex -7.5 7.5 20.8413
    endloop
  endfacet
  facet normal 1 0 0
    outer loop
      vertex -7.5 7.5 11.25
      vertex -7.5 -7.5 20.8413
      vertex -7.5 -7.5 11.25
    endloop
  endfacet
  facet normal -1 0 0
    outer loop
      vertex 7.5 -7.5 11.25
      vertex 7.5 7.5 20.8413
      vertex 7.5 7.5 11.25
    endloop
  endfacet
  facet normal -1 -0 0
    outer loop
      vertex 7.5 7.5 20.8413
      vertex 7.5 -7.5 11.25
      vertex 7.5 -7.5 20.8413
    endloop
  endfacet
  facet normal -0 0 1
    outer loop
      vertex -7.5 7.5 11.25
      vertex 7.5 -7.5 11.25
      vertex 7.5 7.5 11.25
    endloop
  endfacet
  facet normal 0 0 1
    outer loop
      vertex 7.5 -7.5 11.25
      vertex -7.5 7.5 11.25
      vertex -7.5 -7.5 11.25
    endloop
  endfacet
  facet normal 0 1 0
    outer loop
      vertex 7.5 52.5 11.25
      vertex 37.2644 52.5 0
      vertex -7.5 52.5 11.25
    endloop
  endfacet
  facet normal 0 1 0
    outer loop
      vertex 37.2644 52.5 0
      vertex 7.5 52.5 11.25
      vertex 7.5 52.5 20.8413
    endloop
  endfacet
  facet normal 0 1 -0
    outer loop
      vertex -7.5 52.5 11.25
      vertex -37.2644 52.5 0
      vertex -7.5 52.5 20.8413
    endloop
  endfacet
  facet normal 0 1 0
    outer loop
      vertex -37.2644 52.5 0
      vertex -7.5 52.5 11.25
      vertex 37.2644 52.5 0
    endloop
  endfacet
  facet normal 0 0 -1
    outer loop
      vertex -37.2644 37.5 0
      vertex 37.2644 52.5 0
      vertex 37.2644 37.5 0
    endloop
  endfacet
  facet normal -0 0 -1
    outer loop
      vertex 37.2644 52.5 0
      vertex -37.2644 37.5 0
      vertex -37.2644 52.5 0
    endloop
  endfacet
  facet normal 0 -1 -0
    outer loop
      vertex -7.5 37.5 11.25
      vertex -37.2644 37.5 0
      vertex 7.5 37.5 11.25
    endloop
  endfacet
  facet normal 0 -1 0
    outer loop
      vertex -37.2644 37.5 0
      vertex -7.5 37.5 11.25
      vertex -7.5 37.5 20.8413
    endloop
  endfacet
  facet normal 0 -1 0
    outer loop
      vertex 7.5 37.5 11.25
      vertex 37.2644 37.5 0
      vertex 7.5 37.5 20.8413
    endloop
  endfacet
  facet normal 0 -1 0
    outer loop
      vertex 37.2644 37.5 0
      vertex 7.5 37.5 11.25
      vertex -37.2644 37.5 0
    endloop
  endfacet
  facet normal -0.573577 0 0.819151
    outer loop
      vertex -37.2644 52.5 0
      vertex -7.5 37.5 20.8413
      vertex -7.5 52.5 20.8413
    endloop
  endfacet
  facet normal -0.573577 0 0.819151
    outer loop
      vertex -7.5 37.5 20.8413
      vertex -37.2644 52.5 0
      vertex -37.2644 37.5 0
    endloop
  endfacet
  facet normal 0.573577 0 0.819151
    outer loop
      vertex 7.5 52.5 20.8413
      vertex 37.2644 37.5 0
      vertex 37.2644 52.5 0
    endloop
  endfacet
  facet normal 0.573577 0 0.819151
    outer loop
      vertex 37.2644 37.5 0
      vertex 7.5 52.5 20.8413
      vertex 7.5 37.5 20.8413
    endloop
  endfacet
  facet normal 1 -0 0
    outer loop
      vertex -7.5 37.5 20.8413
      vertex -7.5 52.5 11.25
      vertex -7.5 52.5 20.8413
    endloop
  endfacet
  facet normal 1 0 0
    outer loop
      vertex -7.5 52.5 11.25
      vertex -7.5 37.5 20.8413
      vertex -7.5 37.5 11.25
    endloop
  endfacet
  facet normal -1 0 0
    outer loop
      vertex 7.5 37.5 11.25
      vertex 7.5 52.5 20.8413
      vertex 7.5 52.5 11.25
    endloop
  endfacet
  facet normal -1 -0 0
    outer loop
      vertex 7.5 52.5 20.8413
      vertex 7.5 37.5 11.25
      vertex 7.5 37.5 20.8413
    endloop
  endfacet
  facet normal -0 0 1
    outer loop
      vertex -7.5 52.5 11.25
      vertex 7.5 37.5 11.25
      vertex 7.5 52.5 11.25
    endloop
  endfacet
  facet normal 0 0 1
    outer loop
      vertex 7.5 37.5 11.25
      vertex -7.5 52.5 11.25
      vertex -7.5 37.5 11.25
    endloop
  endfacet
endsolid OpenSCAD_Model
