solid OpenSCAD_Model
  facet normal -1 0 0
    outer loop
      vertex -68.5 -5.5 -5.5
      vertex -68.5 5.5 5.5
      vertex -68.5 5.5 -5.5
    endloop
  endfacet
  facet normal -1 -0 0
    outer loop
      vertex -68.5 5.5 5.5
      vertex -68.5 -5.5 -5.5
      vertex -68.5 -5.5 5.5
    endloop
  endfacet
  facet normal 0 0 1
    outer loop
      vertex 68.5 5.5 5.5
      vertex 61.5 0 5.5
      vertex 68.5 -5.5 5.5
    endloop
  endfacet
  facet normal 0 0 1
    outer loop
      vertex 68.5 5.5 5.5
      vertex 60.9271 1.76336 5.5
      vertex 61.5 0 5.5
    endloop
  endfacet
  facet normal 0 0 1
    outer loop
      vertex 68.5 5.5 5.5
      vertex 59.4271 2.85317 5.5
      vertex 60.9271 1.76336 5.5
    endloop
  endfacet
  facet normal 0 0 1
    outer loop
      vertex 68.5 5.5 5.5
      vertex 57.5729 2.85317 5.5
      vertex 59.4271 2.85317 5.5
    endloop
  endfacet
  facet normal 0 0 1
    outer loop
      vertex 56.0729 1.76336 5.5
      vertex -55.5 0 5.5
      vertex 55.5 0 5.5
    endloop
  endfacet
  facet normal 0 0 1
    outer loop
      vertex -56.0729 1.76336 5.5
      vertex 56.0729 1.76336 5.5
      vertex 57.5729 2.85317 5.5
    endloop
  endfacet
  facet normal 0 0 1
    outer loop
      vertex -57.5729 2.85317 5.5
      vertex 57.5729 2.85317 5.5
      vertex 68.5 5.5 5.5
    endloop
  endfacet
  facet normal 0 0 1
    outer loop
      vertex 56.0729 1.76336 5.5
      vertex -56.0729 1.76336 5.5
      vertex -55.5 0 5.5
    endloop
  endfacet
  facet normal 0 0 1
    outer loop
      vertex 57.5729 2.85317 5.5
      vertex -57.5729 2.85317 5.5
      vertex -56.0729 1.76336 5.5
    endloop
  endfacet
  facet normal -0 0 1
    outer loop
      vertex -68.5 5.5 5.5
      vertex -57.5729 2.85317 5.5
      vertex 68.5 5.5 5.5
    endloop
  endfacet
  facet normal 0 0 1
    outer loop
      vertex -60.9271 1.76336 5.5
      vertex -68.5 5.5 5.5
      vertex -61.5 0 5.5
    endloop
  endfacet
  facet normal 0 0 1
    outer loop
      vertex -59.4271 2.85317 5.5
      vertex -68.5 5.5 5.5
      vertex -60.9271 1.76336 5.5
    endloop
  endfacet
  facet normal 0 0 1
    outer loop
      vertex -57.5729 2.85317 5.5
      vertex -68.5 5.5 5.5
      vertex -59.4271 2.85317 5.5
    endloop
  endfacet
  facet normal -0 0 1
    outer loop
      vertex 60.9271 -1.76336 5.5
      vertex 68.5 -5.5 5.5
      vertex 61.5 0 5.5
    endloop
  endfacet
  facet normal -0 0 1
    outer loop
      vertex 59.4271 -2.85317 5.5
      vertex 68.5 -5.5 5.5
      vertex 60.9271 -1.76336 5.5
    endloop
  endfacet
  facet normal -0 0 1
    outer loop
      vertex 57.5729 -2.85317 5.5
      vertex 68.5 -5.5 5.5
      vertex 59.4271 -2.85317 5.5
    endloop
  endfacet
  facet normal -0 0 1
    outer loop
      vertex -55.5 0 5.5
      vertex 56.0729 -1.76336 5.5
      vertex 55.5 0 5.5
    endloop
  endfacet
  facet normal 0 0 1
    outer loop
      vertex -56.0729 -1.76336 5.5
      vertex 56.0729 -1.76336 5.5
      vertex -55.5 0 5.5
    endloop
  endfacet
  facet normal 0 0 1
    outer loop
      vertex 56.0729 -1.76336 5.5
      vertex -56.0729 -1.76336 5.5
      vertex 57.5729 -2.85317 5.5
    endloop
  endfacet
  facet normal 0 0 1
    outer loop
      vertex -57.5729 -2.85317 5.5
      vertex 57.5729 -2.85317 5.5
      vertex -56.0729 -1.76336 5.5
    endloop
  endfacet
  facet normal 0 0 1
    outer loop
      vertex 57.5729 -2.85317 5.5
      vertex -57.5729 -2.85317 5.5
      vertex 68.5 -5.5 5.5
    endloop
  endfacet
  facet normal 0 0 1
    outer loop
      vertex -68.5 -5.5 5.5
      vertex -57.5729 -2.85317 5.5
      vertex -59.4271 -2.85317 5.5
    endloop
  endfacet
  facet normal 0 0 1
    outer loop
      vertex -68.5 -5.5 5.5
      vertex -61.5 0 5.5
      vertex -68.5 5.5 5.5
    endloop
  endfacet
  facet normal 0 0 1
    outer loop
      vertex -57.5729 -2.85317 5.5
      vertex -68.5 -5.5 5.5
      vertex 68.5 -5.5 5.5
    endloop
  endfacet
  facet normal 0 0 1
    outer loop
      vertex -60.9271 -1.76336 5.5
      vertex -68.5 -5.5 5.5
      vertex -59.4271 -2.85317 5.5
    endloop
  endfacet
  facet normal 0 0 1
    outer loop
      vertex -61.5 0 5.5
      vertex -68.5 -5.5 5.5
      vertex -60.9271 -1.76336 5.5
    endloop
  endfacet
  facet normal 1 -0 0
    outer loop
      vertex 68.5 -5.5 5.5
      vertex 68.5 5.5 -5.5
      vertex 68.5 5.5 5.5
    endloop
  endfacet
  facet normal 1 0 0
    outer loop
      vertex 68.5 5.5 -5.5
      vertex 68.5 -5.5 5.5
      vertex 68.5 -5.5 -5.5
    endloop
  endfacet
  facet normal 0 0 -1
    outer loop
      vertex 68.5 -5.5 -5.5
      vertex 61.5 0 -5.5
      vertex 68.5 5.5 -5.5
    endloop
  endfacet
  facet normal 0 0 -1
    outer loop
      vertex 68.5 -5.5 -5.5
      vertex 60.9271 -1.76336 -5.5
      vertex 61.5 0 -5.5
    endloop
  endfacet
  facet normal 0 0 -1
    outer loop
      vertex 68.5 -5.5 -5.5
      vertex 59.4271 -2.85317 -5.5
      vertex 60.9271 -1.76336 -5.5
    endloop
  endfacet
  facet normal 0 0 -1
    outer loop
      vertex 68.5 -5.5 -5.5
      vertex 57.5729 -2.85317 -5.5
      vertex 59.4271 -2.85317 -5.5
    endloop
  endfacet
  facet normal 0 0 -1
    outer loop
      vertex 56.0729 -1.76336 -5.5
      vertex -55.5 0 -5.5
      vertex 55.5 0 -5.5
    endloop
  endfacet
  facet normal 0 0 -1
    outer loop
      vertex -56.0729 -1.76336 -5.5
      vertex 56.0729 -1.76336 -5.5
      vertex 57.5729 -2.85317 -5.5
    endloop
  endfacet
  facet normal 0 0 -1
    outer loop
      vertex -57.5729 -2.85317 -5.5
      vertex 57.5729 -2.85317 -5.5
      vertex 68.5 -5.5 -5.5
    endloop
  endfacet
  facet normal 0 0 -1
    outer loop
      vertex 56.0729 -1.76336 -5.5
      vertex -56.0729 -1.76336 -5.5
      vertex -55.5 0 -5.5
    endloop
  endfacet
  facet normal 0 0 -1
    outer loop
      vertex 57.5729 -2.85317 -5.5
      vertex -57.5729 -2.85317 -5.5
      vertex -56.0729 -1.76336 -5.5
    endloop
  endfacet
  facet normal 0 0 -1
    outer loop
      vertex -68.5 -5.5 -5.5
      vertex -57.5729 -2.85317 -5.5
      vertex 68.5 -5.5 -5.5
    endloop
  endfacet
  facet normal -0 0 -1
    outer loop
      vertex -60.9271 -1.76336 -5.5
      vertex -68.5 -5.5 -5.5
      vertex -61.5 0 -5.5
    endloop
  endfacet
  facet normal -0 0 -1
    outer loop
      vertex -59.4271 -2.85317 -5.5
      vertex -68.5 -5.5 -5.5
      vertex -60.9271 -1.76336 -5.5
    endloop
  endfacet
  facet normal -0 0 -1
    outer loop
      vertex -57.5729 -2.85317 -5.5
      vertex -68.5 -5.5 -5.5
      vertex -59.4271 -2.85317 -5.5
    endloop
  endfacet
  facet normal 0 0 -1
    outer loop
      vertex 60.9271 1.76336 -5.5
      vertex 68.5 5.5 -5.5
      vertex 61.5 0 -5.5
    endloop
  endfacet
  facet normal 0 0 -1
    outer loop
      vertex 59.4271 2.85317 -5.5
      vertex 68.5 5.5 -5.5
      vertex 60.9271 1.76336 -5.5
    endloop
  endfacet
  facet normal 0 0 -1
    outer loop
      vertex 57.5729 2.85317 -5.5
      vertex 68.5 5.5 -5.5
      vertex 59.4271 2.85317 -5.5
    endloop
  endfacet
  facet normal 0 0 -1
    outer loop
      vertex -55.5 0 -5.5
      vertex 56.0729 1.76336 -5.5
      vertex 55.5 0 -5.5
    endloop
  endfacet
  facet normal 0 0 -1
    outer loop
      vertex -56.0729 1.76336 -5.5
      vertex 56.0729 1.76336 -5.5
      vertex -55.5 0 -5.5
    endloop
  endfacet
  facet normal 0 0 -1
    outer loop
      vertex 56.0729 1.76336 -5.5
      vertex -56.0729 1.76336 -5.5
      vertex 57.5729 2.85317 -5.5
    endloop
  endfacet
  facet normal 0 0 -1
    outer loop
      vertex -57.5729 2.85317 -5.5
      vertex 57.5729 2.85317 -5.5
      vertex -56.0729 1.76336 -5.5
    endloop
  endfacet
  facet normal 0 0 -1
    outer loop
      vertex 57.5729 2.85317 -5.5
      vertex -57.5729 2.85317 -5.5
      vertex 68.5 5.5 -5.5
    endloop
  endfacet
  facet normal 0 0 -1
    outer loop
      vertex -68.5 5.5 -5.5
      vertex -57.5729 2.85317 -5.5
      vertex -59.4271 2.85317 -5.5
    endloop
  endfacet
  facet normal 0 0 -1
    outer loop
      vertex -68.5 5.5 -5.5
      vertex -61.5 0 -5.5
      vertex -68.5 -5.5 -5.5
    endloop
  endfacet
  facet normal 0 0 -1
    outer loop
      vertex -57.5729 2.85317 -5.5
      vertex -68.5 5.5 -5.5
      vertex 68.5 5.5 -5.5
    endloop
  endfacet
  facet normal 0 0 -1
    outer loop
      vertex -60.9271 1.76336 -5.5
      vertex -68.5 5.5 -5.5
      vertex -59.4271 2.85317 -5.5
    endloop
  endfacet
  facet normal 0 0 -1
    outer loop
      vertex -61.5 0 -5.5
      vertex -68.5 5.5 -5.5
      vertex -60.9271 1.76336 -5.5
    endloop
  endfacet
  facet normal 0 -1 0
    outer loop
      vertex -68.5 -5.5 -5.5
      vertex 68.5 -5.5 5.5
      vertex -68.5 -5.5 5.5
    endloop
  endfacet
  facet normal 0 -1 -0
    outer loop
      vertex 68.5 -5.5 5.5
      vertex -68.5 -5.5 -5.5
      vertex 68.5 -5.5 -5.5
    endloop
  endfacet
  facet normal 0 1 -0
    outer loop
      vertex 68.5 5.5 -5.5
      vertex -68.5 5.5 5.5
      vertex 68.5 5.5 5.5
    endloop
  endfacet
  facet normal 0 1 0
    outer loop
      vertex -68.5 5.5 5.5
      vertex 68.5 5.5 -5.5
      vertex -68.5 5.5 -5.5
    endloop
  endfacet
  facet normal -0.951057 -0.309017 0
    outer loop
      vertex -55.5 0 -5.5
      vertex -56.0729 1.76336 5.5
      vertex -56.0729 1.76336 -5.5
    endloop
  endfacet
  facet normal -0.951057 -0.309017 0
    outer loop
      vertex -56.0729 1.76336 5.5
      vertex -55.5 0 -5.5
      vertex -55.5 0 5.5
    endloop
  endfacet
  facet normal 0.951057 -0.309017 0
    outer loop
      vertex -61.5 0 5.5
      vertex -60.9271 1.76336 -5.5
      vertex -60.9271 1.76336 5.5
    endloop
  endfacet
  facet normal 0.951057 -0.309017 0
    outer loop
      vertex -60.9271 1.76336 -5.5
      vertex -61.5 0 5.5
      vertex -61.5 0 -5.5
    endloop
  endfacet
  facet normal 0 1 -0
    outer loop
      vertex -57.5729 -2.85317 -5.5
      vertex -59.4271 -2.85317 5.5
      vertex -57.5729 -2.85317 5.5
    endloop
  endfacet
  facet normal 0 1 0
    outer loop
      vertex -59.4271 -2.85317 5.5
      vertex -57.5729 -2.85317 -5.5
      vertex -59.4271 -2.85317 -5.5
    endloop
  endfacet
  facet normal 0 -1 0
    outer loop
      vertex -59.4271 2.85317 -5.5
      vertex -57.5729 2.85317 5.5
      vertex -59.4271 2.85317 5.5
    endloop
  endfacet
  facet normal 0 -1 -0
    outer loop
      vertex -57.5729 2.85317 5.5
      vertex -59.4271 2.85317 -5.5
      vertex -57.5729 2.85317 -5.5
    endloop
  endfacet
  facet normal -0.587785 -0.809017 0
    outer loop
      vertex -57.5729 2.85317 -5.5
      vertex -56.0729 1.76336 5.5
      vertex -57.5729 2.85317 5.5
    endloop
  endfacet
  facet normal -0.587785 -0.809017 -0
    outer loop
      vertex -56.0729 1.76336 5.5
      vertex -57.5729 2.85317 -5.5
      vertex -56.0729 1.76336 -5.5
    endloop
  endfacet
  facet normal 0.587785 -0.809017 0
    outer loop
      vertex -60.9271 1.76336 -5.5
      vertex -59.4271 2.85317 5.5
      vertex -60.9271 1.76336 5.5
    endloop
  endfacet
  facet normal 0.587785 -0.809017 0
    outer loop
      vertex -59.4271 2.85317 5.5
      vertex -60.9271 1.76336 -5.5
      vertex -59.4271 2.85317 -5.5
    endloop
  endfacet
  facet normal -0.587785 0.809017 0
    outer loop
      vertex -56.0729 -1.76336 -5.5
      vertex -57.5729 -2.85317 5.5
      vertex -56.0729 -1.76336 5.5
    endloop
  endfacet
  facet normal -0.587785 0.809017 0
    outer loop
      vertex -57.5729 -2.85317 5.5
      vertex -56.0729 -1.76336 -5.5
      vertex -57.5729 -2.85317 -5.5
    endloop
  endfacet
  facet normal -0.951057 0.309017 0
    outer loop
      vertex -56.0729 -1.76336 -5.5
      vertex -55.5 0 5.5
      vertex -55.5 0 -5.5
    endloop
  endfacet
  facet normal -0.951057 0.309017 0
    outer loop
      vertex -55.5 0 5.5
      vertex -56.0729 -1.76336 -5.5
      vertex -56.0729 -1.76336 5.5
    endloop
  endfacet
  facet normal 0.587785 0.809017 -0
    outer loop
      vertex -59.4271 -2.85317 -5.5
      vertex -60.9271 -1.76336 5.5
      vertex -59.4271 -2.85317 5.5
    endloop
  endfacet
  facet normal 0.587785 0.809017 0
    outer loop
      vertex -60.9271 -1.76336 5.5
      vertex -59.4271 -2.85317 -5.5
      vertex -60.9271 -1.76336 -5.5
    endloop
  endfacet
  facet normal 0.951057 0.309017 0
    outer loop
      vertex -60.9271 -1.76336 5.5
      vertex -61.5 0 -5.5
      vertex -61.5 0 5.5
    endloop
  endfacet
  facet normal 0.951057 0.309017 0
    outer loop
      vertex -61.5 0 -5.5
      vertex -60.9271 -1.76336 5.5
      vertex -60.9271 -1.76336 -5.5
    endloop
  endfacet
  facet normal -0.951057 -0.309017 0
    outer loop
      vertex 61.5 0 -5.5
      vertex 60.9271 1.76336 5.5
      vertex 60.9271 1.76336 -5.5
    endloop
  endfacet
  facet normal -0.951057 -0.309017 0
    outer loop
      vertex 60.9271 1.76336 5.5
      vertex 61.5 0 -5.5
      vertex 61.5 0 5.5
    endloop
  endfacet
  facet normal 0.951057 0.309017 0
    outer loop
      vertex 56.0729 -1.76336 5.5
      vertex 55.5 0 -5.5
      vertex 55.5 0 5.5
    endloop
  endfacet
  facet normal 0.951057 0.309017 0
    outer loop
      vertex 55.5 0 -5.5
      vertex 56.0729 -1.76336 5.5
      vertex 56.0729 -1.76336 -5.5
    endloop
  endfacet
  facet normal 0 -1 0
    outer loop
      vertex 57.5729 2.85317 -5.5
      vertex 59.4271 2.85317 5.5
      vertex 57.5729 2.85317 5.5
    endloop
  endfacet
  facet normal 0 -1 -0
    outer loop
      vertex 59.4271 2.85317 5.5
      vertex 57.5729 2.85317 -5.5
      vertex 59.4271 2.85317 -5.5
    endloop
  endfacet
  facet normal -0.587785 -0.809017 0
    outer loop
      vertex 59.4271 2.85317 -5.5
      vertex 60.9271 1.76336 5.5
      vertex 59.4271 2.85317 5.5
    endloop
  endfacet
  facet normal -0.587785 -0.809017 -0
    outer loop
      vertex 60.9271 1.76336 5.5
      vertex 59.4271 2.85317 -5.5
      vertex 60.9271 1.76336 -5.5
    endloop
  endfacet
  facet normal 0.587785 -0.809017 0
    outer loop
      vertex 56.0729 1.76336 -5.5
      vertex 57.5729 2.85317 5.5
      vertex 56.0729 1.76336 5.5
    endloop
  endfacet
  facet normal 0.587785 -0.809017 0
    outer loop
      vertex 57.5729 2.85317 5.5
      vertex 56.0729 1.76336 -5.5
      vertex 57.5729 2.85317 -5.5
    endloop
  endfacet
  facet normal -0.587785 0.809017 0
    outer loop
      vertex 60.9271 -1.76336 -5.5
      vertex 59.4271 -2.85317 5.5
      vertex 60.9271 -1.76336 5.5
    endloop
  endfacet
  facet normal -0.587785 0.809017 0
    outer loop
      vertex 59.4271 -2.85317 5.5
      vertex 60.9271 -1.76336 -5.5
      vertex 59.4271 -2.85317 -5.5
    endloop
  endfacet
  facet normal 0.587785 0.809017 -0
    outer loop
      vertex 57.5729 -2.85317 -5.5
      vertex 56.0729 -1.76336 5.5
      vertex 57.5729 -2.85317 5.5
    endloop
  endfacet
  facet normal 0.587785 0.809017 0
    outer loop
      vertex 56.0729 -1.76336 5.5
      vertex 57.5729 -2.85317 -5.5
      vertex 56.0729 -1.76336 -5.5
    endloop
  endfacet
  facet normal 0.951057 -0.309017 0
    outer loop
      vertex 55.5 0 5.5
      vertex 56.0729 1.76336 -5.5
      vertex 56.0729 1.76336 5.5
    endloop
  endfacet
  facet normal 0.951057 -0.309017 0
    outer loop
      vertex 56.0729 1.76336 -5.5
      vertex 55.5 0 5.5
      vertex 55.5 0 -5.5
    endloop
  endfacet
  facet normal 0 1 -0
    outer loop
      vertex 59.4271 -2.85317 -5.5
      vertex 57.5729 -2.85317 5.5
      vertex 59.4271 -2.85317 5.5
    endloop
  endfacet
  facet normal 0 1 0
    outer loop
      vertex 57.5729 -2.85317 5.5
      vertex 59.4271 -2.85317 -5.5
      vertex 57.5729 -2.85317 -5.5
    endloop
  endfacet
  facet normal -0.951057 0.309017 0
    outer loop
      vertex 60.9271 -1.76336 -5.5
      vertex 61.5 0 5.5
      vertex 61.5 0 -5.5
    endloop
  endfacet
  facet normal -0.951057 0.309017 0
    outer loop
      vertex 61.5 0 5.5
      vertex 60.9271 -1.76336 -5.5
      vertex 60.9271 -1.76336 5.5
    endloop
  endfacet
endsolid OpenSCAD_Model
