solid OpenSCAD_Model
  facet normal -1 0 0
    outer loop
      vertex -101 -53 -6
      vertex -101 53 6
      vertex -101 53 -6
    endloop
  endfacet
  facet normal -1 -0 0
    outer loop
      vertex -101 53 6
      vertex -101 -53 -6
      vertex -101 -53 6
    endloop
  endfacet
  facet normal 0 0 1
    outer loop
      vertex 101 53 6
      vertex 96 48 6
      vertex 101 -53 6
    endloop
  endfacet
  facet normal 0 0 1
    outer loop
      vertex 101 53 6
      vertex -96 48 6
      vertex 96 48 6
    endloop
  endfacet
  facet normal 0 0 1
    outer loop
      vertex -96 48 6
      vertex -101 53 6
      vertex -96 -48 6
    endloop
  endfacet
  facet normal -0 0 1
    outer loop
      vertex -101 53 6
      vertex -96 48 6
      vertex 101 53 6
    endloop
  endfacet
  facet normal -0 0 1
    outer loop
      vertex 96 -48 6
      vertex 101 -53 6
      vertex 96 48 6
    endloop
  endfacet
  facet normal -0 0 1
    outer loop
      vertex -96 -48 6
      vertex 101 -53 6
      vertex 96 -48 6
    endloop
  endfacet
  facet normal 0 0 1
    outer loop
      vertex -96 -48 6
      vertex -101 -53 6
      vertex 101 -53 6
    endloop
  endfacet
  facet normal 0 0 1
    outer loop
      vertex -101 -53 6
      vertex -96 -48 6
      vertex -101 53 6
    endloop
  endfacet
  facet normal 1 -0 0
    outer loop
      vertex 101 -53 6
      vertex 101 53 -6
      vertex 101 53 6
    endloop
  endfacet
  facet normal 1 0 0
    outer loop
      vertex 101 53 -6
      vertex 101 -53 6
      vertex 101 -53 -6
    endloop
  endfacet
  facet normal 0 1 -0
    outer loop
      vertex 101 53 -6
      vertex -101 53 6
      vertex 101 53 6
    endloop
  endfacet
  facet normal 0 1 0
    outer loop
      vertex -101 53 6
      vertex 101 53 -6
      vertex -101 53 -6
    endloop
  endfacet
  facet normal 0 0 -1
    outer loop
      vertex 101 -53 -6
      vertex 96 -48 -6
      vertex 101 53 -6
    endloop
  endfacet
  facet normal 0 0 -1
    outer loop
      vertex 101 -53 -6
      vertex -96 -48 -6
      vertex 96 -48 -6
    endloop
  endfacet
  facet normal -0 0 -1
    outer loop
      vertex -96 -48 -6
      vertex -101 -53 -6
      vertex -96 48 -6
    endloop
  endfacet
  facet normal 0 0 -1
    outer loop
      vertex -101 -53 -6
      vertex -96 -48 -6
      vertex 101 -53 -6
    endloop
  endfacet
  facet normal 0 0 -1
    outer loop
      vertex 96 48 -6
      vertex 101 53 -6
      vertex 96 -48 -6
    endloop
  endfacet
  facet normal 0 0 -1
    outer loop
      vertex -96 48 -6
      vertex 101 53 -6
      vertex 96 48 -6
    endloop
  endfacet
  facet normal 0 0 -1
    outer loop
      vertex -96 48 -6
      vertex -101 53 -6
      vertex 101 53 -6
    endloop
  endfacet
  facet normal 0 0 -1
    outer loop
      vertex -101 53 -6
      vertex -96 48 -6
      vertex -101 -53 -6
    endloop
  endfacet
  facet normal 0 -1 0
    outer loop
      vertex -101 -53 -6
      vertex 101 -53 6
      vertex -101 -53 6
    endloop
  endfacet
  facet normal 0 -1 -0
    outer loop
      vertex 101 -53 6
      vertex -101 -53 -6
      vertex 101 -53 -6
    endloop
  endfacet
  facet normal 1 -0 0
    outer loop
      vertex -96 -48 6
      vertex -96 48 -6
      vertex -96 48 6
    endloop
  endfacet
  facet normal 1 0 0
    outer loop
      vertex -96 48 -6
      vertex -96 -48 6
      vertex -96 -48 -6
    endloop
  endfacet
  facet normal -1 0 0
    outer loop
      vertex 96 -48 -6
      vertex 96 48 6
      vertex 96 48 -6
    endloop
  endfacet
  facet normal -1 -0 0
    outer loop
      vertex 96 48 6
      vertex 96 -48 -6
      vertex 96 -48 6
    endloop
  endfacet
  facet normal 0 -1 0
    outer loop
      vertex -96 48 -6
      vertex 96 48 6
      vertex -96 48 6
    endloop
  endfacet
  facet normal 0 -1 -0
    outer loop
      vertex 96 48 6
      vertex -96 48 -6
      vertex 96 48 -6
    endloop
  endfacet
  facet normal 0 1 -0
    outer loop
      vertex 96 -48 -6
      vertex -96 -48 6
      vertex 96 -48 6
    endloop
  endfacet
  facet normal 0 1 0
    outer loop
      vertex -96 -48 6
      vertex 96 -48 -6
      vertex -96 -48 -6
    endloop
  endfacet
endsolid OpenSCAD_Model
