solid OpenSCAD_Model
  facet normal -1 0 0
    outer loop
      vertex -60 -10 0
      vertex -60 -5.25 4.75
      vertex -60 -5.25 0
    endloop
  endfacet
  facet normal -1 -0 0
    outer loop
      vertex -60 -5.25 4.75
      vertex -60 -10 0
      vertex -60 -10 4.75
    endloop
  endfacet
  facet normal -0 0 1
    outer loop
      vertex -60 -5.25 4.75
      vertex 60 -10 4.75
      vertex 60 -5.25 4.75
    endloop
  endfacet
  facet normal 0 0 1
    outer loop
      vertex 60 -10 4.75
      vertex -60 -5.25 4.75
      vertex -60 -10 4.75
    endloop
  endfacet
  facet normal 1 -0 0
    outer loop
      vertex 60 -10 4.75
      vertex 60 -5.25 0
      vertex 60 -5.25 4.75
    endloop
  endfacet
  facet normal 1 0 0
    outer loop
      vertex 60 -5.25 0
      vertex 60 -10 4.75
      vertex 60 -10 0
    endloop
  endfacet
  facet normal 0 1 -0
    outer loop
      vertex 60 -5.25 0
      vertex -60 -5.25 4.75
      vertex 60 -5.25 4.75
    endloop
  endfacet
  facet normal 0 1 0
    outer loop
      vertex -60 -5.25 4.75
      vertex 60 -5.25 0
      vertex -60 -5.25 0
    endloop
  endfacet
  facet normal 0 0 -1
    outer loop
      vertex -60 -10 0
      vertex 60 -5.25 0
      vertex 60 -10 0
    endloop
  endfacet
  facet normal -0 0 -1
    outer loop
      vertex 60 -5.25 0
      vertex -60 -10 0
      vertex -60 -5.25 0
    endloop
  endfacet
  facet normal 0 -1 0
    outer loop
      vertex -60 -10 0
      vertex 60 -10 4.75
      vertex -60 -10 4.75
    endloop
  endfacet
  facet normal 0 -1 -0
    outer loop
      vertex 60 -10 4.75
      vertex -60 -10 0
      vertex 60 -10 0
    endloop
  endfacet
  facet normal -1 0 0
    outer loop
      vertex -60 0 0
      vertex -60 4.5 4.5
      vertex -60 4.5 0
    endloop
  endfacet
  facet normal -1 -0 0
    outer loop
      vertex -60 4.5 4.5
      vertex -60 0 0
      vertex -60 0 4.5
    endloop
  endfacet
  facet normal -0 0 1
    outer loop
      vertex -60 4.5 4.5
      vertex 60 0 4.5
      vertex 60 4.5 4.5
    endloop
  endfacet
  facet normal 0 0 1
    outer loop
      vertex 60 0 4.5
      vertex -60 4.5 4.5
      vertex -60 0 4.5
    endloop
  endfacet
  facet normal 1 -0 0
    outer loop
      vertex 60 0 4.5
      vertex 60 4.5 0
      vertex 60 4.5 4.5
    endloop
  endfacet
  facet normal 1 0 0
    outer loop
      vertex 60 4.5 0
      vertex 60 0 4.5
      vertex 60 0 0
    endloop
  endfacet
  facet normal 0 1 -0
    outer loop
      vertex 60 4.5 0
      vertex -60 4.5 4.5
      vertex 60 4.5 4.5
    endloop
  endfacet
  facet normal 0 1 0
    outer loop
      vertex -60 4.5 4.5
      vertex 60 4.5 0
      vertex -60 4.5 0
    endloop
  endfacet
  facet normal 0 0 -1
    outer loop
      vertex -60 0 0
      vertex 60 4.5 0
      vertex 60 0 0
    endloop
  endfacet
  facet normal -0 0 -1
    outer loop
      vertex 60 4.5 0
      vertex -60 0 0
      vertex -60 4.5 0
    endloop
  endfacet
  facet normal 0 -1 0
    outer loop
      vertex -60 0 0
      vertex 60 0 4.5
      vertex -60 0 4.5
    endloop
  endfacet
  facet normal 0 -1 -0
    outer loop
      vertex 60 0 4.5
      vertex -60 0 0
      vertex 60 0 0
    endloop
  endfacet
  facet normal -1 0 0
    outer loop
      vertex -60 10 0
      vertex -60 14.25 4.25
      vertex -60 14.25 0
    endloop
  endfacet
  facet normal -1 -0 0
    outer loop
      vertex -60 14.25 4.25
      vertex -60 10 0
      vertex -60 10 4.25
    endloop
  endfacet
  facet normal -0 0 1
    outer loop
      vertex -60 14.25 4.25
      vertex 55 10 4.25
      vertex 55 14.25 4.25
    endloop
  endfacet
  facet normal 0 0 1
    outer loop
      vertex 55 10 4.25
      vertex -60 14.25 4.25
      vertex -60 10 4.25
    endloop
  endfacet
  facet normal 1 -0 0
    outer loop
      vertex 55 10 4.25
      vertex 55 14.25 0
      vertex 55 14.25 4.25
    endloop
  endfacet
  facet normal 1 0 0
    outer loop
      vertex 55 14.25 0
      vertex 55 10 4.25
      vertex 55 10 0
    endloop
  endfacet
  facet normal 0 1 -0
    outer loop
      vertex 55 14.25 0
      vertex -60 14.25 4.25
      vertex 55 14.25 4.25
    endloop
  endfacet
  facet normal 0 1 0
    outer loop
      vertex -60 14.25 4.25
      vertex 55 14.25 0
      vertex -60 14.25 0
    endloop
  endfacet
  facet normal 0 0 -1
    outer loop
      vertex -60 10 0
      vertex 55 14.25 0
      vertex 55 10 0
    endloop
  endfacet
  facet normal -0 0 -1
    outer loop
      vertex 55 14.25 0
      vertex -60 10 0
      vertex -60 14.25 0
    endloop
  endfacet
  facet normal 0 -1 0
    outer loop
      vertex -60 10 0
      vertex 55 10 4.25
      vertex -60 10 4.25
    endloop
  endfacet
  facet normal 0 -1 -0
    outer loop
      vertex 55 10 4.25
      vertex -60 10 0
      vertex 55 10 0
    endloop
  endfacet
endsolid OpenSCAD_Model
